<svg width="42" height="42" viewBox="0 0 42 42" fill="none" xmlns="http://www.w3.org/2000/svg">
<path d="M34.125 9.62524L33.0405 27.1692C32.7633 31.6514 32.6249 33.8927 31.5014 35.5041C30.9458 36.3007 30.2307 36.973 29.4012 37.4782C27.7237 38.5002 25.4782 38.5002 20.9872 38.5002C16.4905 38.5002 14.242 38.5002 12.5633 37.4763C11.7334 36.9702 11.018 36.2966 10.4627 35.4986C9.33954 33.8848 9.20404 31.6404 8.93307 27.1518L7.875 9.62524" stroke="#FF5C77" stroke-width="2.72623" stroke-linecap="round"/>
<path d="M15.7505 20.5359H26.2505" stroke="#FF5C77" stroke-width="2.72623" stroke-linecap="round"/>
<path d="M18.3755 27.395H23.6255" stroke="#FF5C77" stroke-width="2.72623" stroke-linecap="round"/>
<path d="M5.25 9.625H36.75M28.0971 9.625L26.9026 7.16053C26.109 5.52346 25.7121 4.70491 25.0276 4.19442C24.8759 4.08118 24.7151 3.98044 24.5469 3.89322C23.789 3.5 22.8793 3.5 21.06 3.5C19.195 3.5 18.2627 3.5 17.4921 3.90971C17.3213 4.00052 17.1584 4.10533 17.0049 4.22305C16.3125 4.75423 15.9258 5.60271 15.1522 7.2997L14.0923 9.625" stroke="#FF5C77" stroke-width="2.72623" stroke-linecap="round"/>
</svg>
