<svg width="28" height="28" viewBox="0 0 28 28" fill="none" xmlns="http://www.w3.org/2000/svg">
<path d="M3.5 13.9879V16.9167C3.5 20.7665 3.5 22.6914 4.69598 23.8875C5.89196 25.0834 7.81687 25.0834 11.6667 25.0834H16.3333C20.1831 25.0834 22.108 25.0834 23.3041 23.8875C24.5 22.6914 24.5 20.7665 24.5 16.9167V13.9879C24.5 12.0264 24.5 11.0458 24.0848 10.1968C23.6696 9.34785 22.8955 8.74574 21.3472 7.54154L19.0139 5.72672C16.6053 3.85341 15.4011 2.91675 14 2.91675C12.599 2.91675 11.3947 3.85341 8.98616 5.72672L6.65281 7.54154C5.10455 8.74574 4.33042 9.34785 3.91522 10.1968C3.5 11.0458 3.5 12.0264 3.5 13.9879Z" stroke="white" stroke-width="1.81748" stroke-linecap="round" stroke-linejoin="round"/>
<path d="M17.5 19.8335C16.5673 20.5596 15.3419 21.0002 14 21.0002C12.658 21.0002 11.4328 20.5596 10.5 19.8335" stroke="white" stroke-width="1.81748" stroke-linecap="round" stroke-linejoin="round"/>
</svg>
