<svg width="20" height="20" viewBox="0 0 20 20" fill="none" xmlns="http://www.w3.org/2000/svg">
<circle cx="10" cy="10" r="10" fill="#FCFCFC"/>
<path fill-rule="evenodd" clip-rule="evenodd" d="M6.5 6C6.22386 6 6 6.22386 6 6.5V7.5C6 7.77614 5.77614 8 5.5 8C5.22386 8 5 7.77614 5 7.5V6.5C5 5.67157 5.67157 5 6.5 5H7.5C7.77614 5 8 5.22386 8 5.5C8 5.77614 7.77614 6 7.5 6H6.5Z" fill="#A9B4BE"/>
<path fill-rule="evenodd" clip-rule="evenodd" d="M13.5 11C13.7761 11 14 11.2239 14 11.5V12.5C14 13.3284 13.3284 14 12.5 14H11.5C11.2239 14 11 13.7761 11 13.5C11 13.2239 11.2239 13 11.5 13H12.5C12.7761 13 13 12.7761 13 12.5V11.5C13 11.2239 13.2239 11 13.5 11Z" fill="#A9B4BE"/>
<path fill-rule="evenodd" clip-rule="evenodd" d="M11.6464 5.14645C11.8417 4.95118 12.1583 4.95118 12.3536 5.14645L13.8536 6.64645C14.0488 6.84171 14.0488 7.15829 13.8536 7.35355L12.3537 8.85341L7.35355 13.8536C7.25979 13.9473 7.13261 14 7 14H5.5C5.22386 14 5 13.7761 5 13.5V12C5 11.8674 5.05268 11.7402 5.14645 11.6464L10.1464 6.6465L11.6464 5.14645ZM10.5 7.70711L6.20712 12L7.00002 12.7929L11.2929 8.5L10.5 7.70711ZM12 7.79289L11.2071 7L12 6.20711L12.7929 7L12 7.79289Z" fill="#A9B4BE"/>
</svg>
