<svg width="28" height="28" viewBox="0 0 28 28" fill="none" xmlns="http://www.w3.org/2000/svg">
<path d="M18.0833 17.5001L20.4167 19.8334M19.25 13.4167C19.25 10.5173 16.8995 8.16675 14 8.16675C11.1005 8.16675 8.75 10.5173 8.75 13.4167C8.75 16.3163 11.1005 18.6667 14 18.6667C16.8995 18.6667 19.25 16.3163 19.25 13.4167Z" stroke="#898F9A" stroke-width="1.5" stroke-linecap="round" stroke-linejoin="round"/>
<path d="M17.4998 25.0834C19.6725 25.0834 20.7589 25.0834 21.6288 24.7668C23.087 24.2361 24.2358 23.0872 24.7665 21.629C25.0832 20.7592 25.0832 19.6728 25.0832 17.5001M10.4998 25.0834C8.32714 25.0834 7.24079 25.0834 6.3709 24.7668C4.91262 24.2361 3.76389 23.0872 3.23311 21.629C2.9165 20.7592 2.9165 19.6728 2.9165 17.5001M10.4998 2.91675C8.32714 2.91675 7.24079 2.91675 6.3709 3.23336C4.91262 3.76412 3.76389 4.91287 3.23311 6.37114C2.9165 7.24103 2.9165 8.32737 2.9165 10.5001M17.4998 2.91675C19.6725 2.91675 20.7589 2.91675 21.6288 3.23336C23.087 3.76412 24.2358 4.91287 24.7665 6.37114C25.0832 7.24103 25.0832 8.32737 25.0832 10.5001" stroke="#898F9A" stroke-width="1.5" stroke-linecap="round" stroke-linejoin="round"/>
</svg>
