<svg width="28" height="28" viewBox="0 0 28 28" fill="none" xmlns="http://www.w3.org/2000/svg">
<path d="M24.8703 8.3317L24.2944 7.33234C23.8589 6.57654 23.6412 6.19864 23.2706 6.04794C22.9001 5.89726 22.481 6.01616 21.643 6.25398L20.2195 6.65496C19.6844 6.77835 19.123 6.70835 18.6345 6.45734L18.2415 6.23057C17.8225 5.96225 17.5003 5.56664 17.3219 5.10161L16.9324 3.938C16.6762 3.16798 16.5481 2.78297 16.2431 2.56275C15.9383 2.34253 15.5332 2.34253 14.7231 2.34253H13.4225C12.6124 2.34253 12.2074 2.34253 11.9024 2.56275C11.5975 2.78297 11.4694 3.16798 11.2132 3.938L10.8236 5.10161C10.6453 5.56664 10.323 5.96225 9.9041 6.23057L9.51107 6.45734C9.02253 6.70835 8.46119 6.77835 7.92615 6.65496L6.50254 6.25398C5.66448 6.01616 5.24546 5.89726 4.87495 6.04794C4.50444 6.19864 4.28669 6.57654 3.85118 7.33234L3.27533 8.3317C2.86711 9.04016 2.66299 9.3944 2.70261 9.77149C2.74221 10.1486 3.01547 10.4525 3.56197 11.0602L4.76485 12.405C5.05885 12.7772 5.26758 13.4258 5.26758 14.0091C5.26758 14.5925 5.05892 15.2409 4.76489 15.6132L3.56197 16.958C3.01547 17.5659 2.74223 17.8697 2.70261 18.2469C2.66299 18.6239 2.86711 18.9781 3.27533 19.6865L3.85117 20.6859C4.28667 21.4417 4.50444 21.8197 4.87495 21.9703C5.24546 22.121 5.66449 22.0021 6.50257 21.7642L7.9261 21.3633C8.46124 21.2398 9.02268 21.3099 9.51128 21.561L9.90425 21.7878C10.3231 22.0561 10.6452 22.4516 10.8236 22.9167L11.2132 24.0804C11.4694 24.8504 11.5975 25.2354 11.9024 25.4557C12.2074 25.6758 12.6124 25.6758 13.4225 25.6758H14.7231C15.5332 25.6758 15.9383 25.6758 16.2431 25.4557C16.5481 25.2354 16.6762 24.8504 16.9324 24.0804L17.322 22.9167C17.5003 22.4516 17.8224 22.0561 18.2414 21.7878L18.6343 21.561C19.1229 21.3099 19.6843 21.2398 20.2195 21.3633L21.643 21.7642C22.481 22.0021 22.9001 22.121 23.2706 21.9703C23.6412 21.8197 23.8589 21.4417 24.2944 20.6859L24.8703 19.6865C25.2785 18.9781 25.4825 18.6239 25.443 18.2469C25.4033 17.8697 25.1301 17.5659 24.5836 16.958L23.3807 15.6132C23.0867 15.2409 22.8779 14.5925 22.8779 14.0091C22.8779 13.4258 23.0868 12.7772 23.3807 12.405L24.5836 11.0602C25.1301 10.4525 25.4033 10.1486 25.443 9.77149C25.4825 9.3944 25.2785 9.04016 24.8703 8.3317Z" stroke="#898F9A" stroke-width="1.5" stroke-linecap="round"/>
<path d="M18.1061 14.0001C18.1061 16.2552 16.2779 18.0834 14.0228 18.0834C11.7676 18.0834 9.93945 16.2552 9.93945 14.0001C9.93945 11.7449 11.7676 9.91675 14.0228 9.91675C16.2779 9.91675 18.1061 11.7449 18.1061 14.0001Z" stroke="#898F9A" stroke-width="1.5"/>
</svg>
