<svg width="12" height="11" viewBox="0 0 12 11" fill="none" xmlns="http://www.w3.org/2000/svg">
<g clip-path="url(#clip0_38636_15942)">
<path d="M4.16699 10.0844H7.83366C9.12983 10.0844 9.77837 10.0844 10.1808 9.68195C10.5837 9.27862 10.5837 8.63099 10.5837 7.33437V6.87604C10.5837 5.57987 10.5837 4.93179 10.1808 4.52891C9.82878 4.17691 9.28887 4.13245 8.29199 4.12695M3.70866 4.12695C2.71178 4.13245 2.17187 4.17691 1.81987 4.52891C1.41699 4.93179 1.41699 5.57987 1.41699 6.87604V7.33437C1.41699 8.63099 1.41699 9.27908 1.81987 9.68195C1.95737 9.81945 2.12328 9.90974 2.33366 9.96933" stroke="#5B738B" stroke-width="0.9" stroke-linecap="round"/>
<path d="M6 0.917969V6.8763M6 6.8763L4.625 5.27214M6 6.8763L7.375 5.27214" stroke="#5B738B" stroke-width="0.9" stroke-linecap="round" stroke-linejoin="round"/>
</g>
<defs>
<clipPath id="clip0_38636_15942">
<rect width="11" height="11" fill="white" transform="translate(0.5)"/>
</clipPath>
</defs>
</svg>
