<svg width="11" height="11" viewBox="0 0 11 11" fill="none" xmlns="http://www.w3.org/2000/svg">
<path d="M7.33366 0.916016V2.74935M3.66699 0.916016V2.74935" stroke="#E76500" stroke-width="0.6875" stroke-linecap="round" stroke-linejoin="round"/>
<path d="M5.95833 1.83398H5.04167C3.31318 1.83398 2.44894 1.83398 1.91197 2.37095C1.375 2.90793 1.375 3.77217 1.375 5.50065V6.41732C1.375 8.14578 1.375 9.01006 1.91197 9.547C2.44894 10.084 3.31318 10.084 5.04167 10.084H5.95833C7.6868 10.084 8.55108 10.084 9.08802 9.547C9.625 9.01006 9.625 8.14578 9.625 6.41732V5.50065C9.625 3.77217 9.625 2.90793 9.08802 2.37095C8.55108 1.83398 7.6868 1.83398 5.95833 1.83398Z" stroke="#E76500" stroke-width="0.6875" stroke-linecap="round" stroke-linejoin="round"/>
<path d="M1.375 4.58398H9.625" stroke="#E76500" stroke-width="0.6875" stroke-linecap="round" stroke-linejoin="round"/>
<path d="M5.49826 6.41602H5.50239M5.49826 8.24935H5.50239M7.32953 6.41602H7.33366M3.66699 6.41602H3.6711M3.66699 8.24935H3.6711" stroke="#E76500" stroke-width="0.916667" stroke-linecap="round" stroke-linejoin="round"/>
</svg>
